<mxfile host="app.diagrams.net" agent="Mozilla/5.0 (Windows NT 10.0; Win64; x64) AppleWebKit/537.36 (KHTML, like Gecko) Chrome/124.0.0.0 Safari/537.36 SLBrowser/9.0.5.12181 SLBChan/ SLBVPV/64-bit" version="26.2.13">
  <diagram name="第 1 页" id="QPHwtG5bY8G475oExFpF">
    <mxGraphModel dx="1064" dy="584" grid="1" gridSize="10" guides="1" tooltips="1" connect="1" arrows="1" fold="1" page="1" pageScale="1" pageWidth="827" pageHeight="1169" math="0" shadow="0">
      <root>
        <mxCell id="0" />
        <mxCell id="1" parent="0" />
        <mxCell id="ZtMsiJ0BlscQ1oRTtkIM-10" value="开始" style="ellipse;whiteSpace=wrap;html=1;fillColor=#f8cecc;strokeColor=#b85450;" vertex="1" parent="1">
          <mxGeometry x="220" y="40" width="70" height="40" as="geometry" />
        </mxCell>
        <mxCell id="ZtMsiJ0BlscQ1oRTtkIM-11" value="" style="endArrow=classic;html=1;rounded=0;exitX=0.5;exitY=1;exitDx=0;exitDy=0;" edge="1" parent="1" source="ZtMsiJ0BlscQ1oRTtkIM-10">
          <mxGeometry width="50" height="50" relative="1" as="geometry">
            <mxPoint x="290" y="130" as="sourcePoint" />
            <mxPoint x="255" y="120" as="targetPoint" />
          </mxGeometry>
        </mxCell>
        <mxCell id="ZtMsiJ0BlscQ1oRTtkIM-12" value="输入专业名（计算机科学与技术）" style="rounded=0;whiteSpace=wrap;html=1;fillColor=#dae8fc;strokeColor=#6c8ebf;" vertex="1" parent="1">
          <mxGeometry x="195" y="120" width="120" height="60" as="geometry" />
        </mxCell>
        <mxCell id="ZtMsiJ0BlscQ1oRTtkIM-14" value="" style="endArrow=classic;html=1;rounded=0;exitX=0.5;exitY=1;exitDx=0;exitDy=0;" edge="1" parent="1" source="ZtMsiJ0BlscQ1oRTtkIM-12">
          <mxGeometry width="50" height="50" relative="1" as="geometry">
            <mxPoint x="330" y="240" as="sourcePoint" />
            <mxPoint x="255" y="220" as="targetPoint" />
          </mxGeometry>
        </mxCell>
        <mxCell id="ZtMsiJ0BlscQ1oRTtkIM-17" style="edgeStyle=orthogonalEdgeStyle;rounded=0;orthogonalLoop=1;jettySize=auto;html=1;exitX=0.5;exitY=1;exitDx=0;exitDy=0;entryX=0.5;entryY=0;entryDx=0;entryDy=0;" edge="1" parent="1" source="ZtMsiJ0BlscQ1oRTtkIM-15" target="ZtMsiJ0BlscQ1oRTtkIM-16">
          <mxGeometry relative="1" as="geometry" />
        </mxCell>
        <mxCell id="ZtMsiJ0BlscQ1oRTtkIM-15" value="询问大模型该专业有哪些专业课" style="rounded=0;whiteSpace=wrap;html=1;fillColor=#dae8fc;strokeColor=#6c8ebf;" vertex="1" parent="1">
          <mxGeometry x="195" y="220" width="120" height="60" as="geometry" />
        </mxCell>
        <mxCell id="ZtMsiJ0BlscQ1oRTtkIM-18" style="edgeStyle=orthogonalEdgeStyle;rounded=0;orthogonalLoop=1;jettySize=auto;html=1;exitX=1;exitY=0.5;exitDx=0;exitDy=0;entryX=0;entryY=0.5;entryDx=0;entryDy=0;" edge="1" parent="1" source="ZtMsiJ0BlscQ1oRTtkIM-16" target="ZtMsiJ0BlscQ1oRTtkIM-19">
          <mxGeometry relative="1" as="geometry">
            <mxPoint x="400" y="360" as="targetPoint" />
          </mxGeometry>
        </mxCell>
        <mxCell id="ZtMsiJ0BlscQ1oRTtkIM-16" value="从大模型获得该&lt;div&gt;专业的专业课列表&lt;/div&gt;" style="rhombus;whiteSpace=wrap;html=1;fillColor=#fff2cc;strokeColor=#d6b656;" vertex="1" parent="1">
          <mxGeometry x="187.5" y="300" width="135" height="120" as="geometry" />
        </mxCell>
        <mxCell id="ZtMsiJ0BlscQ1oRTtkIM-29" style="edgeStyle=orthogonalEdgeStyle;rounded=0;orthogonalLoop=1;jettySize=auto;html=1;exitX=0.5;exitY=1;exitDx=0;exitDy=0;entryX=0.5;entryY=0;entryDx=0;entryDy=0;" edge="1" parent="1" source="ZtMsiJ0BlscQ1oRTtkIM-19" target="ZtMsiJ0BlscQ1oRTtkIM-23">
          <mxGeometry relative="1" as="geometry" />
        </mxCell>
        <mxCell id="ZtMsiJ0BlscQ1oRTtkIM-19" value="数据结构" style="rounded=0;whiteSpace=wrap;html=1;fillColor=#d5e8d4;strokeColor=#82b366;" vertex="1" parent="1">
          <mxGeometry x="362.5" y="330" width="60" height="60" as="geometry" />
        </mxCell>
        <mxCell id="ZtMsiJ0BlscQ1oRTtkIM-20" value="操作系统&lt;span style=&quot;color: rgba(0, 0, 0, 0); font-family: monospace; font-size: 0px; text-align: start; text-wrap: nowrap;&quot;&gt;%3CmxGraphModel%3E%3Croot%3E%3CmxCell%20id%3D%220%22%2F%3E%3CmxCell%20id%3D%221%22%20parent%3D%220%22%2F%3E%3CmxCell%20id%3D%222%22%20value%3D%22%E6%95%B0%E6%8D%AE%E7%BB%93%E6%9E%84%22%20style%3D%22rounded%3D0%3BwhiteSpace%3Dwrap%3Bhtml%3D1%3BfillColor%3D%23d5e8d4%3BstrokeColor%3D%2382b366%3B%22%20vertex%3D%221%22%20parent%3D%221%22%3E%3CmxGeometry%20x%3D%22400%22%20y%3D%22330%22%20width%3D%2260%22%20height%3D%2260%22%20as%3D%22geometry%22%2F%3E%3C%2FmxCell%3E%3C%2Froot%3E%3C%2FmxGraphModel%3E&lt;/span&gt;&lt;span style=&quot;color: rgba(0, 0, 0, 0); font-family: monospace; font-size: 0px; text-align: start; text-wrap: nowrap;&quot;&gt;%3CmxGraphModel%3E%3Croot%3E%3CmxCell%20id%3D%220%22%2F%3E%3CmxCell%20id%3D%221%22%20parent%3D%220%22%2F%3E%3CmxCell%20id%3D%222%22%20value%3D%22%E6%95%B0%E6%8D%AE%E7%BB%93%E6%9E%84%22%20style%3D%22rounded%3D0%3BwhiteSpace%3Dwrap%3Bhtml%3D1%3BfillColor%3D%23d5e8d4%3BstrokeColor%3D%2382b366%3B%22%20vertex%3D%221%22%20parent%3D%221%22%3E%3CmxGeometry%20x%3D%22400%22%20y%3D%22330%22%20width%3D%2260%22%20height%3D%2260%22%20as%3D%22geometry%22%2F%3E%3C%2FmxCell%3E%3C%2Froot%3E%3C%2FmxGraphModel%3E&lt;/span&gt;" style="rounded=0;whiteSpace=wrap;html=1;fillColor=#d5e8d4;strokeColor=#82b366;" vertex="1" parent="1">
          <mxGeometry x="422.5" y="330" width="60" height="60" as="geometry" />
        </mxCell>
        <mxCell id="ZtMsiJ0BlscQ1oRTtkIM-21" value="&lt;font style=&quot;font-size: 18px;&quot;&gt;···&lt;/font&gt;" style="rounded=0;whiteSpace=wrap;html=1;fillColor=#d5e8d4;strokeColor=#82b366;" vertex="1" parent="1">
          <mxGeometry x="482.5" y="330" width="60" height="60" as="geometry" />
        </mxCell>
        <mxCell id="ZtMsiJ0BlscQ1oRTtkIM-25" style="edgeStyle=orthogonalEdgeStyle;rounded=0;orthogonalLoop=1;jettySize=auto;html=1;exitX=0.5;exitY=1;exitDx=0;exitDy=0;entryX=0.5;entryY=0;entryDx=0;entryDy=0;" edge="1" parent="1" source="ZtMsiJ0BlscQ1oRTtkIM-23" target="ZtMsiJ0BlscQ1oRTtkIM-24">
          <mxGeometry relative="1" as="geometry" />
        </mxCell>
        <mxCell id="ZtMsiJ0BlscQ1oRTtkIM-23" value="询问大模型该专业课&lt;div&gt;（数据结构）有哪些章节&lt;/div&gt;" style="rounded=0;whiteSpace=wrap;html=1;fillColor=#dae8fc;strokeColor=#6c8ebf;" vertex="1" parent="1">
          <mxGeometry x="322.5" y="430" width="140" height="50" as="geometry" />
        </mxCell>
        <mxCell id="ZtMsiJ0BlscQ1oRTtkIM-24" value="从大模型获得该&lt;div&gt;课程的章节列表&lt;/div&gt;" style="rhombus;whiteSpace=wrap;html=1;fillColor=#fff2cc;strokeColor=#d6b656;" vertex="1" parent="1">
          <mxGeometry x="325" y="500" width="135" height="120" as="geometry" />
        </mxCell>
        <mxCell id="ZtMsiJ0BlscQ1oRTtkIM-30" value="" style="endArrow=classic;html=1;rounded=0;" edge="1" parent="1">
          <mxGeometry width="50" height="50" relative="1" as="geometry">
            <mxPoint x="460" y="560" as="sourcePoint" />
            <mxPoint x="500" y="560" as="targetPoint" />
          </mxGeometry>
        </mxCell>
        <mxCell id="ZtMsiJ0BlscQ1oRTtkIM-34" style="edgeStyle=orthogonalEdgeStyle;rounded=0;orthogonalLoop=1;jettySize=auto;html=1;exitX=0.5;exitY=1;exitDx=0;exitDy=0;" edge="1" parent="1" source="ZtMsiJ0BlscQ1oRTtkIM-31">
          <mxGeometry relative="1" as="geometry">
            <mxPoint x="530" y="630" as="targetPoint" />
          </mxGeometry>
        </mxCell>
        <mxCell id="ZtMsiJ0BlscQ1oRTtkIM-31" value="线性表" style="rounded=0;whiteSpace=wrap;html=1;fillColor=#d5e8d4;strokeColor=#82b366;" vertex="1" parent="1">
          <mxGeometry x="500" y="530" width="60" height="60" as="geometry" />
        </mxCell>
        <mxCell id="ZtMsiJ0BlscQ1oRTtkIM-32" value="栈和&lt;span style=&quot;color: rgba(0, 0, 0, 0); font-family: monospace; font-size: 0px; text-align: start; text-wrap: nowrap;&quot;&gt;%3CmxGraphModel%3E%3Croot%3E%3CmxCell%20id%3D%220%22%2F%3E%3CmxCell%20id%3D%221%22%20parent%3D%220%22%2F%3E%3CmxCell%20id%3D%222%22%20value%3D%22%E7%BA%BF%E6%80%A7%E8%A1%A8%22%20style%3D%22rounded%3D0%3BwhiteSpace%3Dwrap%3Bhtml%3D1%3BfillColor%3D%23d5e8d4%3BstrokeColor%3D%2382b366%3B%22%20vertex%3D%221%22%20parent%3D%221%22%3E%3CmxGeometry%20x%3D%22500%22%20y%3D%22530%22%20width%3D%2260%22%20height%3D%2260%22%20as%3D%22geometry%22%2F%3E%3C%2FmxCell%3E%3C%2Froot%3E%3C%2FmxGraphModel%3E&lt;/span&gt;队列" style="rounded=0;whiteSpace=wrap;html=1;fillColor=#d5e8d4;strokeColor=#82b366;" vertex="1" parent="1">
          <mxGeometry x="560" y="530" width="60" height="60" as="geometry" />
        </mxCell>
        <mxCell id="ZtMsiJ0BlscQ1oRTtkIM-33" value="&lt;font style=&quot;font-size: 18px;&quot;&gt;...&lt;/font&gt;" style="rounded=0;whiteSpace=wrap;html=1;fillColor=#d5e8d4;strokeColor=#82b366;" vertex="1" parent="1">
          <mxGeometry x="620" y="530" width="60" height="60" as="geometry" />
        </mxCell>
        <mxCell id="ZtMsiJ0BlscQ1oRTtkIM-36" style="edgeStyle=orthogonalEdgeStyle;rounded=0;orthogonalLoop=1;jettySize=auto;html=1;exitX=0.5;exitY=1;exitDx=0;exitDy=0;" edge="1" parent="1" source="ZtMsiJ0BlscQ1oRTtkIM-35">
          <mxGeometry relative="1" as="geometry">
            <mxPoint x="530.1176470588236" y="729.9999999999998" as="targetPoint" />
          </mxGeometry>
        </mxCell>
        <mxCell id="ZtMsiJ0BlscQ1oRTtkIM-35" value="让大模型生成该章节（线性表）的专业名词及其描述" style="rounded=0;whiteSpace=wrap;html=1;fillColor=#dae8fc;strokeColor=#6c8ebf;" vertex="1" parent="1">
          <mxGeometry x="470" y="630" width="120" height="60" as="geometry" />
        </mxCell>
        <mxCell id="ZtMsiJ0BlscQ1oRTtkIM-37" value="整理获得的专业名词及其描述，构建数据集" style="rounded=0;whiteSpace=wrap;html=1;fillColor=#dae8fc;strokeColor=#6c8ebf;" vertex="1" parent="1">
          <mxGeometry x="465" y="730" width="130" height="60" as="geometry" />
        </mxCell>
        <mxCell id="ZtMsiJ0BlscQ1oRTtkIM-38" value="" style="endArrow=classic;html=1;rounded=0;exitX=0.5;exitY=1;exitDx=0;exitDy=0;" edge="1" parent="1" source="ZtMsiJ0BlscQ1oRTtkIM-37">
          <mxGeometry width="50" height="50" relative="1" as="geometry">
            <mxPoint x="590" y="830" as="sourcePoint" />
            <mxPoint x="530" y="830" as="targetPoint" />
          </mxGeometry>
        </mxCell>
        <mxCell id="ZtMsiJ0BlscQ1oRTtkIM-39" value="结束" style="ellipse;whiteSpace=wrap;html=1;fillColor=#f8cecc;strokeColor=#b85450;" vertex="1" parent="1">
          <mxGeometry x="495" y="830" width="70" height="40" as="geometry" />
        </mxCell>
      </root>
    </mxGraphModel>
  </diagram>
</mxfile>
